<svg width="67" height="24" viewBox="0 0 67 24" fill="none" xmlns="http://www.w3.org/2000/svg">
<g filter="url(#filter0_b_0_1)">
<path d="M60.513 7.76444C59.8663 7.87154 59.5127 8.13222 59.4096 8.57679C59.3773 8.71825 59.3834 9.07795 59.4218 9.22142C59.4945 9.49827 59.6602 9.73875 59.8522 9.84383C60.0664 9.95901 60.2078 9.97922 60.8444 9.97922C62.0063 9.97922 62.463 10.0419 63.0794 10.2844C63.6452 10.5046 64.2333 10.9553 64.6071 11.4524C64.8981 11.8404 65.1628 12.4405 65.2679 12.9599C65.5447 14.3077 65.2436 15.5728 64.4192 16.5064C63.3623 17.7027 61.4991 18.1553 59.2702 17.7572C58.1891 17.5652 57.1625 17.1247 56.433 16.5387C56.334 16.4599 56.2451 16.3972 56.235 16.4013C56.1905 16.4134 55.8167 16.7004 55.8147 16.7226C55.8147 16.763 56.1905 17.0641 56.4916 17.2642C57.3686 17.8502 58.4013 18.2139 59.6946 18.3978C60.0482 18.4483 61.2728 18.4605 61.6345 18.418C63.2734 18.2301 64.4555 17.5551 65.2598 16.3548C66.0075 15.2393 66.1449 13.5196 65.6033 12.1051C65.1062 10.8118 64.1282 9.92668 62.8187 9.58719C62.3398 9.4619 62.0367 9.43159 61.0566 9.41744L60.2462 9.4033L60.1492 9.34267C60.0118 9.2578 59.9532 9.13857 59.9411 8.92639C59.929 8.72431 59.9654 8.61923 60.0866 8.50809C60.2644 8.3444 60.4887 8.30197 61.1899 8.30197C61.9356 8.30197 62.459 8.36057 62.8227 8.48182L62.9986 8.54042L63.2168 8.37876C63.336 8.28984 63.433 8.20901 63.433 8.19689C63.433 8.1686 63.1299 8.0332 62.9076 7.96248C62.6712 7.88771 62.4044 7.8291 62.0993 7.78667C61.78 7.74019 60.7393 7.72604 60.513 7.76444Z" fill="#517BDC"/>
</g>
<g filter="url(#filter1_b_0_1)">
<path d="M60.5231 6.62674C60.1311 6.66715 59.6622 6.79042 59.3874 6.92985C58.9024 7.17437 58.5084 7.61894 58.3447 8.10999C58.1911 8.56871 58.1931 9.22345 58.3528 9.71045C58.5629 10.3551 59.0055 10.7997 59.6259 10.9957C59.9148 11.0866 60.1573 11.1109 60.808 11.1109C61.9397 11.1109 62.3741 11.1816 62.8773 11.4402C63.4209 11.7232 63.8655 12.2647 64.0797 12.9053C64.3444 13.7015 64.2696 14.6735 63.8938 15.3181C63.6311 15.7728 63.2431 16.1406 62.7924 16.3629C62.2812 16.6155 61.7437 16.7367 61.0182 16.761C59.5976 16.8095 58.0961 16.4134 57.2434 15.7647C57.1767 15.7162 57.114 15.6799 57.0999 15.6839C57.0797 15.692 56.7382 15.9607 56.6937 16.0032C56.6715 16.0254 56.6735 16.0254 56.916 16.2113C57.1686 16.4033 57.5384 16.6114 57.9021 16.7691C59.343 17.3854 61.2789 17.5107 62.56 17.0702C63.1218 16.8762 63.5583 16.5933 63.9665 16.1608C64.5768 15.5121 64.8698 14.6189 64.791 13.6429C64.7182 12.7699 64.4232 12.0768 63.8816 11.513C63.4734 11.0866 63.0147 10.8199 62.4469 10.6764C62.0771 10.5834 61.8447 10.5632 60.9273 10.545C59.9694 10.5269 59.8785 10.5167 59.5814 10.3733C59.2338 10.2055 59.0014 9.91253 58.8762 9.48413C58.7751 9.13251 58.767 8.66571 58.86 8.35653C59.0095 7.84931 59.4177 7.46738 59.9896 7.30168C60.2826 7.21681 60.5069 7.18852 60.9596 7.17639C61.7639 7.15618 62.4833 7.24914 63.0976 7.45526C63.2794 7.51588 63.6614 7.69169 63.8069 7.78263L63.8877 7.83315L64.0999 7.6735C64.2171 7.58459 64.3141 7.50578 64.3181 7.4977C64.3242 7.47547 64.0413 7.29158 63.8352 7.18245C63.2997 6.89954 62.5014 6.69342 61.685 6.62472C61.4001 6.60047 60.7696 6.60249 60.5231 6.62674Z" fill="#517BDC"/>
</g>
<g filter="url(#filter2_b_0_1)">
<path d="M60.4847 5.49307C59.7976 5.55976 59.1752 5.74567 58.7004 6.02454C57.8577 6.51963 57.308 7.30774 57.1484 8.25144C57.0938 8.57477 57.0878 9.10219 57.1363 9.44371C57.3404 10.8583 58.2861 11.8949 59.6198 12.1596C59.9735 12.2304 60.1472 12.2425 60.7959 12.2425C61.7255 12.2425 61.9983 12.2789 62.3418 12.4486C62.7864 12.6669 63.0693 13.1721 63.1036 13.8106C63.1239 14.1845 63.0491 14.526 62.8854 14.8008C62.7844 14.9726 62.5217 15.2272 62.3418 15.3282C62.1579 15.4313 61.8326 15.5424 61.5739 15.5869C61.4547 15.6091 61.2183 15.6253 60.9454 15.6314C59.7774 15.6596 58.763 15.4475 58.1224 15.0372C58.0638 15.0009 58.0032 14.9766 57.9911 14.9847C57.9304 15.0191 57.5728 15.302 57.5728 15.3141C57.5728 15.3343 57.9365 15.5667 58.0921 15.6455C58.5993 15.8981 59.2359 16.0719 60.0179 16.1669C60.1472 16.183 60.4564 16.1931 60.806 16.1931C61.4325 16.1911 61.6709 16.1648 62.073 16.0497C62.2933 15.987 62.6288 15.8274 62.7945 15.7102C63.4613 15.2333 63.7685 14.4573 63.6452 13.556C63.5704 13.0003 63.3866 12.6143 63.0309 12.2627C62.8066 12.0404 62.6227 11.9273 62.3256 11.8262C61.9781 11.709 61.8366 11.6949 60.8666 11.6767C60.2139 11.6646 59.9452 11.6524 59.8259 11.6282C59.1813 11.5049 58.6963 11.2382 58.3326 10.8077C57.8819 10.2743 57.6718 9.66801 57.6698 8.88799C57.6677 8.35855 57.7546 7.97055 57.9607 7.57448C58.0901 7.3239 58.2255 7.14203 58.4518 6.91773C58.9449 6.42667 59.5754 6.16195 60.4807 6.06495C60.8404 6.02858 61.582 6.03868 61.9983 6.0892C63.0592 6.21651 64.0756 6.58834 64.694 7.07535C64.7607 7.12991 64.7769 7.13395 64.8132 7.11172C64.8819 7.06726 65.2113 6.80052 65.2113 6.7884C65.2093 6.76617 64.9789 6.59238 64.7627 6.4489C64.0372 5.96998 63.1036 5.65473 62.0084 5.52136C61.6992 5.48499 60.7656 5.4668 60.4847 5.49307Z" fill="#517BDC"/>
</g>
<g filter="url(#filter3_b_0_1)">
<path d="M60.513 4.36143C59.5167 4.43418 58.5852 4.72922 57.892 5.18996C56.8938 5.85075 56.2491 6.83892 56.0349 8.02916C55.9925 8.26357 55.9864 8.35249 55.9864 8.86779C55.9864 9.48615 56.0026 9.65589 56.1117 10.0984C56.3381 11.0381 56.8574 11.8929 57.5243 12.4284C57.9789 12.7942 58.6357 13.1013 59.2561 13.2408C59.7168 13.3438 59.8583 13.358 60.7454 13.3721L61.584 13.3842L61.6992 13.4388C61.8447 13.5055 61.9235 13.6207 61.9558 13.8106C61.9922 14.0167 61.9478 14.1703 61.8124 14.2956C61.6285 14.4694 61.485 14.4957 60.705 14.4957C59.8785 14.4957 59.4339 14.4472 59.0338 14.3118L58.8863 14.2633L58.6741 14.427C58.5569 14.5159 58.4619 14.5967 58.4619 14.6048C58.4619 14.621 58.7488 14.7584 58.9044 14.817C59.0459 14.8715 59.4521 14.9645 59.6885 14.9988C60.1978 15.0716 60.9293 15.0938 61.3011 15.0494C62.1397 14.9463 62.5621 14.5341 62.5156 13.8591C62.4792 13.3135 62.2367 12.9841 61.782 12.8568C61.6871 12.8305 61.5012 12.8204 60.806 12.8083C59.9209 12.7922 59.7613 12.778 59.3834 12.6891C58.4457 12.4648 57.6031 11.8788 57.1322 11.121C56.7927 10.5713 56.5846 9.8802 56.5462 9.16484C56.5038 8.40705 56.6149 7.78869 56.8978 7.19255C57.112 6.74394 57.3181 6.45093 57.6637 6.10941C58.086 5.68909 58.5751 5.40214 59.2359 5.18187C59.7411 5.01213 60.2321 4.93332 60.8767 4.91311C62.6348 4.86259 64.3262 5.35768 65.4376 6.24885C65.5447 6.33574 65.6377 6.40647 65.6438 6.40849C65.662 6.41455 66.0803 6.09729 66.0803 6.07708C66.0803 6.04273 65.666 5.71334 65.3932 5.53147C65.0779 5.32131 64.4374 4.99596 64.0595 4.85653C63.427 4.62212 62.7136 4.46045 61.968 4.38164C61.6952 4.35335 60.7878 4.33921 60.513 4.36143Z" fill="#517BDC"/>
</g>
<g filter="url(#filter4_b_0_1)">
<path d="M54.5234 4.98182C54.489 5.11317 51.7832 15.3343 51.3063 17.1348C51.2073 17.5087 51.1265 17.83 51.1265 17.8482C51.1265 17.8785 51.1588 17.8805 51.4134 17.8764L51.7004 17.8704L51.8155 17.4359C51.8782 17.1975 52.4319 15.106 53.0462 12.7881C53.6585 10.4703 54.2546 8.21912 54.3698 7.78667C54.6669 6.6712 55.1276 4.92322 55.1276 4.91513C55.1276 4.91109 54.9963 4.90705 54.8346 4.90705H54.5436L54.5234 4.98182Z" fill="#517BDC"/>
</g>
<g filter="url(#filter5_b_0_1)">
<path d="M53.3594 4.96161C53.3534 4.99394 53.1695 5.68707 52.9532 6.50347C52.735 7.31987 52.0641 9.85797 51.4599 12.1415C50.8557 14.4249 50.2696 16.6397 50.1585 17.0601C50.0453 17.4804 49.9544 17.8381 49.9544 17.8522C49.9544 17.8744 50.011 17.8805 50.2353 17.8805C50.4859 17.8805 50.5182 17.8764 50.5283 17.8441C50.5445 17.7916 50.9547 16.2416 53.5413 6.47316C53.7575 5.6507 53.9414 4.96161 53.9475 4.9414C53.9576 4.90907 53.9353 4.90705 53.6666 4.90705H53.3736L53.3594 4.96161Z" fill="#517BDC"/>
</g>
<g filter="url(#filter6_b_0_1)">
<path d="M52.2076 4.9313C52.2015 4.94544 52.0479 5.52541 51.864 6.22056C50.8132 10.1853 49.3441 15.7203 49.0834 16.7003C48.9177 17.3248 48.7823 17.8461 48.7823 17.8583C48.7823 17.8744 48.8632 17.8805 49.0693 17.8764L49.3542 17.8704L49.53 17.2035C49.821 16.1103 51.9832 7.94227 52.3975 6.37414C52.6097 5.5739 52.7835 4.91715 52.7835 4.91311C52.7835 4.90907 52.6562 4.90705 52.5006 4.90705C52.2924 4.90705 52.2136 4.91311 52.2076 4.9313Z" fill="#517BDC"/>
</g>
<g filter="url(#filter7_b_0_1)">
<path d="M47.1677 6.2246C46.9758 6.95006 46.6565 8.15849 46.4584 8.9082C45.7431 11.6059 44.4558 16.47 44.278 17.1449C44.177 17.5248 44.0941 17.8461 44.0941 17.8583C44.0941 17.8845 44.6519 17.8906 44.668 17.8623C44.6802 17.8441 44.7691 17.5127 45.5208 14.6573C45.8057 13.5782 46.0462 12.6891 46.0543 12.679C46.0644 12.6689 46.0866 12.7154 46.1048 12.78C46.1493 12.9336 47.0728 16.0961 47.3658 17.0984C47.489 17.5167 47.5901 17.8663 47.5901 17.8704C47.5901 17.8764 47.7235 17.8785 47.8871 17.8764L48.1862 17.8704L48.3701 17.1732C48.6773 16.0153 50.8779 7.71998 51.2578 6.29128C51.4518 5.55774 51.6114 4.94544 51.6114 4.93129C51.6114 4.91109 51.5468 4.90704 51.3245 4.91109L51.0355 4.91715L50.9527 5.23037C50.9062 5.40214 50.6293 6.4388 50.3384 7.53407C50.0474 8.62933 49.7725 9.66397 49.7281 9.8317C49.6816 10.0014 49.6392 10.1409 49.6331 10.1409C49.627 10.1409 49.4815 9.66195 49.3118 9.0739C49.142 8.48788 48.8005 7.3138 48.552 6.46305L48.1034 4.91715L47.8103 4.91109L47.5173 4.90502L47.1677 6.2246ZM48.1579 7.15012C48.3256 7.73412 48.6611 8.90214 48.9036 9.74682L49.3441 11.2826L49.2047 11.8161C49.1299 12.1091 49.0632 12.3536 49.0572 12.3577C49.045 12.3698 49.0612 12.4223 48.2751 9.72662C47.9073 8.45958 47.586 7.35422 47.5618 7.26934L47.5153 7.11778L47.6446 6.6429C47.7154 6.38424 47.7821 6.13366 47.7942 6.0892C47.8144 6.01848 47.8205 6.01443 47.8346 6.04879C47.8447 6.07102 47.9902 6.56611 48.1579 7.15012ZM48.0043 10.8603L48.7642 13.4853L48.6166 14.0268C48.5378 14.3239 48.4651 14.5563 48.457 14.5421C48.4348 14.5017 46.9434 9.34065 46.9434 9.30427C46.9434 9.28811 47.002 9.0537 47.0748 8.78291C47.2304 8.20699 47.2284 8.21507 47.2385 8.22517C47.2425 8.22922 47.5881 9.41542 48.0043 10.8603ZM47.4163 13.0751L48.1761 15.698L48.0347 16.2275C47.9558 16.5185 47.8871 16.761 47.8831 16.767C47.8669 16.7812 47.8629 16.7691 47.8083 16.5771C47.78 16.476 47.4405 15.2979 47.0566 13.9561L46.3554 11.517L46.4888 11.0058C46.6343 10.446 46.6383 10.4339 46.6484 10.446C46.6545 10.4501 47 11.6342 47.4163 13.0751Z" fill="#517BDC"/>
</g>
<g filter="url(#filter8_b_0_1)">
<path d="M46.1876 5.50722C46.1008 5.83863 45.9169 6.5358 45.7774 7.05918C45.64 7.58055 45.0318 9.87818 44.4275 12.1617C43.8233 14.4452 43.2373 16.6599 43.1262 17.0803C43.013 17.5006 42.9221 17.8542 42.9221 17.8643C42.9221 17.8744 43.0514 17.8785 43.209 17.8764L43.496 17.8704L43.692 17.1328C43.7991 16.7266 44.3932 14.4815 45.0116 12.1415C45.6319 9.80139 46.218 7.58257 46.317 7.21074C46.416 6.83892 46.5878 6.18418 46.7009 5.75578C46.8141 5.32737 46.9111 4.96161 46.9151 4.9414C46.9252 4.90907 46.903 4.90705 46.6342 4.90705H46.3432L46.1876 5.50722Z" fill="#517BDC"/>
</g>
<g filter="url(#filter9_b_0_1)">
<path d="M45.1772 4.9414C45.1712 4.96161 44.9934 5.63251 44.7812 6.43274C43.7546 10.3046 42.1541 16.3407 41.9622 17.056C41.845 17.4986 41.75 17.8643 41.75 17.8704C41.75 17.8764 41.8793 17.8785 42.039 17.8764L42.3259 17.8704L42.4936 17.2439C42.5846 16.8984 43.1868 14.625 43.8314 12.192C44.476 9.75693 45.1712 7.12991 45.3773 6.35191C45.5834 5.57391 45.7511 4.9313 45.7511 4.92321C45.7511 4.91311 45.6238 4.90705 45.4703 4.90705C45.2197 4.90705 45.1873 4.91109 45.1772 4.9414Z" fill="#517BDC"/>
</g>
<g filter="url(#filter10_b_0_1)">
<path d="M40.6466 4.9414C40.6608 4.98384 41.1518 6.84094 41.7237 9.00924C41.942 9.83776 42.1238 10.5188 42.1279 10.5228C42.142 10.541 42.1582 10.4925 42.2936 9.99134L42.435 9.46998L42.1097 8.24336C41.9319 7.57044 41.6611 6.5459 41.5075 5.96796L41.2307 4.91715L40.9336 4.91109C40.6567 4.90705 40.6365 4.90907 40.6466 4.9414Z" fill="#517BDC"/>
</g>
<g filter="url(#filter11_b_0_1)">
<path d="M39.4948 4.96161C39.5211 5.07073 41.4913 12.5577 41.5216 12.6628C41.5378 12.7234 41.556 12.7659 41.5621 12.7618C41.5661 12.7558 41.6328 12.5193 41.7076 12.2364L41.847 11.7211L41.3256 9.74278C41.0387 8.6556 40.6386 7.13799 40.4385 6.37211C40.2364 5.60422 40.0667 4.96161 40.0606 4.9414C40.0505 4.91109 40.0182 4.90705 39.7656 4.90705H39.4827L39.4948 4.96161Z" fill="#517BDC"/>
</g>
<g filter="url(#filter12_b_0_1)">
<path d="M38.3147 4.91513C38.3147 4.91917 38.4844 5.55774 38.6905 6.33372C38.8967 7.11172 39.4928 9.3548 40.0141 11.323C40.5355 13.2893 40.97 14.918 40.9801 14.9402C40.9922 14.9706 41.0306 14.8412 41.1236 14.4573C41.1923 14.1703 41.2488 13.9157 41.2488 13.8915C41.2488 13.8672 40.875 12.4304 40.4163 10.6966C39.9596 8.96276 39.4301 6.95006 39.2382 6.2246L38.8906 4.90705H38.6036C38.444 4.90705 38.3147 4.91109 38.3147 4.91513Z" fill="#517BDC"/>
</g>
<g filter="url(#filter13_b_0_1)">
<path d="M37.1507 4.9414C37.1568 4.96161 37.2073 5.1556 37.2618 5.37183C37.4457 6.08112 40.0505 15.9324 40.4405 17.3955L40.5678 17.8704L40.8568 17.8764C41.1397 17.8825 41.1438 17.8805 41.164 17.836C41.1741 17.8098 41.3236 17.2581 41.4954 16.6074C41.7702 15.5728 43.1827 10.2399 44.1931 6.43274C44.3811 5.72142 44.5488 5.08689 44.565 5.02223L44.5953 4.90502L44.3002 4.91109L44.0072 4.91715L43.7061 6.04879C43.5424 6.67119 42.8473 9.29013 42.1643 11.8687C41.4812 14.4472 40.9094 16.5973 40.8952 16.6478C40.877 16.7064 40.8629 16.7286 40.8548 16.7084C40.8386 16.666 40.8184 16.5973 39.5595 11.8383C38.9431 9.51039 38.2783 7.0026 38.0843 6.26703C37.8883 5.53147 37.7286 4.92321 37.7286 4.91715C37.7286 4.91109 37.5953 4.90704 37.4336 4.90704C37.1628 4.90704 37.1406 4.90907 37.1507 4.9414Z" fill="#517BDC"/>
</g>
<g filter="url(#filter14_b_0_1)">
<path d="M34.6267 7.87962C33.7962 7.99278 33.1394 8.58487 32.8889 9.44371C32.7636 9.87616 32.7535 9.98528 32.7434 11.0341C32.7333 12.0061 32.7454 12.291 32.808 12.6487C32.9495 13.4651 33.3819 14.0814 34.0185 14.3744C34.5944 14.6412 35.4249 14.629 35.9908 14.3441C36.4091 14.134 36.7385 13.7581 36.9143 13.2893C36.9911 13.0892 37.0699 12.7558 37.0921 12.5517L37.1062 12.4264L37.0294 12.3941C36.9001 12.3415 36.8961 12.3456 36.8476 12.6487C36.7971 12.9477 36.7344 13.164 36.6354 13.36C36.3909 13.843 36.0352 14.1461 35.532 14.2956C35.3845 14.3401 35.3017 14.3502 35.0511 14.3583C34.7035 14.3704 34.4994 14.3421 34.2246 14.2411C33.782 14.0814 33.4042 13.6914 33.2041 13.1923C33.0303 12.7538 32.9798 12.4486 32.9656 11.7312L32.9555 11.1917H35.0046C37.0173 11.1917 37.0557 11.1917 37.0921 11.1513C37.1244 11.1149 37.1264 11.0684 37.1163 10.541C37.1103 10.153 37.0961 9.90243 37.0719 9.76097C36.9708 9.12038 36.7768 8.67985 36.4656 8.37269C36.2333 8.14636 35.9362 7.99278 35.5765 7.91801C35.3421 7.86952 34.847 7.84931 34.6267 7.87962ZM35.5624 8.11807C36.2191 8.28378 36.6091 8.71016 36.789 9.45785C36.8658 9.7731 36.9001 10.1389 36.9001 10.6097V11.03L34.9359 11.026L32.9697 11.0199L32.9717 10.6057C32.9758 10.0014 33.0606 9.55687 33.2546 9.13251C33.5113 8.57477 33.9821 8.1989 34.5661 8.08776C34.7823 8.04735 35.3461 8.06351 35.5624 8.11807Z" fill="black"/>
</g>
<g filter="url(#filter15_b_0_1)">
<path d="M30.7064 6.30543C30.5912 6.61865 30.5953 6.5742 30.5953 7.37645V8.1201H30.3023H30.0092V8.21103V8.29995L30.2982 8.30601L30.5852 8.31207L30.5953 11.0805C30.6054 13.6045 30.6094 13.8652 30.6417 14.0289C30.7286 14.4694 30.8762 14.5987 31.2318 14.5482C31.3207 14.5361 31.44 14.5139 31.4945 14.4997L31.5956 14.4755L31.6016 14.3785C31.6057 14.3259 31.6036 14.2835 31.5976 14.2835C31.5915 14.2835 31.5309 14.2956 31.4602 14.3118C31.3369 14.3401 31.2096 14.3522 31.0944 14.3461C31.0055 14.3421 30.9044 14.231 30.864 14.0915C30.8317 13.9804 30.8277 13.7561 30.8216 11.1533C30.8176 8.86981 30.8216 8.33228 30.8418 8.31813C30.8559 8.31005 31.0338 8.30197 31.2379 8.30197H31.6057V8.21103V8.1201H31.2116H30.8176L30.8135 7.20468L30.8074 6.29129L30.761 6.28522C30.7367 6.28118 30.7125 6.29129 30.7064 6.30543Z" fill="black"/>
</g>
<g filter="url(#filter16_b_0_1)">
<path d="M24.4622 8.14434C24.4561 8.15849 24.4642 8.21507 24.4783 8.27165C24.4945 8.32622 24.9775 9.69025 25.5514 11.2988L26.5961 14.2269L26.2385 15.2494C26.0424 15.8132 25.8565 16.3467 25.8242 16.4336C25.7919 16.5225 25.7656 16.6013 25.7656 16.6114C25.7656 16.6195 25.8161 16.6276 25.8767 16.6276C25.9838 16.6276 25.9879 16.6256 26.0263 16.5508C26.0465 16.5104 26.6386 14.8392 27.3418 12.8386C29.0271 8.04128 28.9584 8.24134 28.9584 8.17466C28.9584 8.11807 28.9564 8.11807 28.8533 8.12414L28.7462 8.1302L28.6816 8.31207C28.5967 8.55456 26.8225 13.6348 26.7699 13.7844C26.7497 13.849 26.7234 13.8955 26.7154 13.8854C26.7073 13.8773 26.6729 13.7641 26.6386 13.6368C26.6042 13.5095 26.1495 12.2182 25.6282 10.7673L24.6784 8.1302L24.5753 8.12414C24.5046 8.1201 24.4682 8.12616 24.4622 8.14434Z" fill="black"/>
</g>
<g filter="url(#filter17_b_0_1)">
<path d="M18.5716 10.3126V14.4674L20.0832 14.4613C21.7948 14.4532 21.6877 14.4633 22.0575 14.2835C22.6071 14.0147 22.9506 13.5297 23.0881 12.8265C23.1062 12.7335 23.1265 12.5012 23.1325 12.3132C23.1547 11.6342 23.0254 11.1573 22.7162 10.7673C22.502 10.4986 22.203 10.2904 21.9281 10.2197C21.8715 10.2055 21.8251 10.1874 21.8251 10.1793C21.8251 10.1732 21.8635 10.151 21.912 10.1328C22.1949 10.0257 22.5829 9.70641 22.7668 9.43158C23.0012 9.07997 23.1163 8.71623 23.1325 8.27569C23.1507 7.82708 23.082 7.45728 22.9183 7.13395C22.8233 6.94804 22.7708 6.87529 22.6172 6.71767C22.3444 6.4388 21.9989 6.26299 21.5846 6.19024C21.4472 6.16599 21.1542 6.15993 19.9942 6.15993H18.5716V10.3126ZM21.6836 6.40647C22.0393 6.50347 22.2595 6.62875 22.4636 6.85306C22.6576 7.06524 22.7688 7.27743 22.8597 7.61086C22.8981 7.74423 22.9042 7.82304 22.9042 8.16051C22.9062 8.60912 22.886 8.71825 22.7546 9.00318C22.5222 9.50231 22.1747 9.81553 21.6331 10.0176L21.4916 10.0702L20.1438 10.0762L18.7939 10.0823V8.21103V6.33978L20.1438 6.34584L21.4916 6.35393L21.6836 6.40647ZM21.7018 10.3389C22.1706 10.4824 22.502 10.7653 22.7142 11.2018C22.8536 11.4908 22.8981 11.6807 22.9102 12.0626C22.9284 12.582 22.8638 12.9498 22.694 13.3074C22.4273 13.8692 22.009 14.1885 21.4411 14.2633C21.328 14.2774 20.851 14.2835 20.0367 14.2794L18.804 14.2734L18.7979 12.2768L18.7939 10.2803L20.1721 10.2864C21.5381 10.2945 21.5543 10.2945 21.7018 10.3389Z" fill="black"/>
</g>
<path d="M8.84151 6.17206C8.01703 6.22056 7.48961 6.36605 7.08141 6.65705C6.68129 6.93996 6.46709 7.39665 6.46709 7.96854C6.46709 8.5384 6.62471 8.98297 6.94197 9.30428C7.12587 9.49019 7.28551 9.58314 7.56438 9.66398C7.8392 9.74481 8.05543 9.75693 9.12038 9.75693C9.66801 9.75693 10.2399 9.76704 10.3894 9.77916C11.907 9.89637 13.1801 10.4501 14.1946 11.4342C14.6412 11.8666 14.9827 12.3294 15.2555 12.8649C15.6839 13.7136 15.9042 14.5644 15.9648 15.6192C16.0719 17.4278 15.4899 19.0525 14.2835 20.3155C13.3196 21.3259 11.8404 22.011 10.1449 22.2333C9.45987 22.3242 8.40098 22.3424 7.64319 22.2777C5.21824 22.0716 3.08025 21.2815 1.66772 20.071C1.58891 20.0043 1.51617 19.9437 1.50202 19.9356C1.48787 19.9255 1.33429 20.0286 1.12009 20.1862L0.762412 20.4529L0.871535 20.552C1.27367 20.9137 1.92234 21.3805 2.41541 21.6614C3.33487 22.1868 4.53926 22.6394 5.681 22.89C6.64088 23.1002 7.4209 23.1891 8.46767 23.2093C9.87211 23.2356 10.9532 23.086 12.0687 22.7102C13.2973 22.2959 14.2896 21.6674 15.0918 20.7904C16.086 19.7032 16.6215 18.513 16.8277 16.9408C16.8762 16.5528 16.8782 15.4939 16.8277 15.0918C16.6337 13.5459 16.1406 12.3152 15.2777 11.2341C14.3421 10.06 12.9174 9.25578 11.2846 8.97893C10.7229 8.88395 10.4339 8.86576 9.13453 8.8496C7.92003 8.83545 7.91195 8.83545 7.79273 8.78898C7.54013 8.68996 7.39261 8.47373 7.35219 8.14434C7.31178 7.82708 7.3623 7.63915 7.54215 7.44111C7.81697 7.14204 8.28984 7.05514 9.53868 7.07535C10.6966 7.09556 11.3998 7.18245 11.9758 7.37645L12.2203 7.4593L12.5658 7.19862C12.7558 7.05514 12.9094 6.92783 12.9053 6.91773C12.8993 6.88742 12.6467 6.75809 12.3961 6.65705C11.81 6.42062 11.024 6.26097 10.155 6.20237C9.81553 6.18014 9.02743 6.16196 8.84151 6.17206Z" fill="#517BDC"/>
<path d="M8.35653 4.40387C6.86317 4.54331 5.82044 5.07477 5.19198 6.01444C4.74539 6.6813 4.56958 7.45728 4.65041 8.3929C4.75953 9.66398 5.38395 10.6764 6.35999 11.1614C6.57218 11.2665 6.87327 11.3715 7.12385 11.4301C7.54215 11.5271 7.70179 11.5393 9.0436 11.5554C10.1793 11.5696 10.345 11.5756 10.5814 11.612C11.7959 11.802 12.6305 12.2809 13.2953 13.164C13.8106 13.851 14.0935 14.6553 14.1683 15.6394C14.2552 16.8034 13.9642 17.8542 13.3216 18.6989C13.1721 18.8949 12.7578 19.3072 12.5476 19.4668C11.7999 20.0407 10.8845 20.362 9.63973 20.4913C9.26588 20.5297 8.12818 20.5237 7.65936 20.4792C5.79013 20.3075 4.18563 19.7639 3.04995 18.9192C2.94891 18.8424 2.85595 18.7818 2.84585 18.7858C2.83574 18.7878 2.67812 18.9111 2.49423 19.0586L2.16282 19.3253L2.26588 19.4163C2.43967 19.5699 2.85595 19.8649 3.12674 20.0266C4.3574 20.7621 5.86894 21.2148 7.64925 21.3805C8.09383 21.4209 9.49221 21.4148 9.86201 21.3704C11.515 21.1703 12.6749 20.655 13.6146 19.7073C14.0147 19.3031 14.3017 18.903 14.5502 18.4019C14.7907 17.9169 14.9402 17.4299 15.0292 16.8398C15.0857 16.4639 15.0797 15.5121 15.017 15.112C14.8311 13.8894 14.3684 12.9417 13.552 12.1051C12.774 11.3069 11.7878 10.8502 10.5087 10.6946C10.3005 10.6703 9.93476 10.6582 8.96276 10.6461C7.59873 10.6279 7.56236 10.6259 7.16427 10.5127C6.93996 10.4501 6.64492 10.3126 6.47922 10.1934C6.22258 10.0095 5.94169 9.65993 5.80428 9.35075C5.72143 9.16686 5.64261 8.92033 5.59614 8.70208C5.53753 8.4313 5.51935 7.78262 5.5638 7.50174C5.67293 6.81265 6.04677 6.22662 6.61865 5.84671C7.02483 5.57593 7.59267 5.39608 8.31611 5.30716C8.60509 5.27281 9.82564 5.27281 10.2258 5.30716C11.5878 5.42841 12.6689 5.73759 13.4449 6.22864L13.6227 6.3418L13.9662 6.07708C14.1542 5.92956 14.3077 5.80428 14.3077 5.79417C14.3077 5.74769 13.7985 5.42033 13.4651 5.25462C12.5618 4.79995 11.3433 4.49885 10.0237 4.40185C9.70237 4.3776 8.61721 4.37962 8.35653 4.40387Z" fill="#517BDC"/>
<path d="M8.44745 2.59527C7.79878 2.65185 7.40069 2.7145 6.92176 2.83574C6.46102 2.95295 6.12153 3.07622 5.70929 3.28031C5.13943 3.5612 4.70698 3.87443 4.26443 4.33314C3.57736 5.04244 3.14694 5.84671 2.95496 6.77627C2.67205 8.1403 2.89434 9.69429 3.53088 10.8077C4.30687 12.1677 5.50115 12.9922 7.07332 13.2509C7.5381 13.3277 7.7422 13.3378 8.97286 13.3539C10.1025 13.3681 10.2116 13.3721 10.4218 13.4125C10.6804 13.461 10.9674 13.552 11.1452 13.6409C11.7757 13.9581 12.196 14.5886 12.3415 15.4353C12.388 15.7081 12.388 16.3346 12.3415 16.571C12.2445 17.0601 12.0424 17.4501 11.713 17.7976C11.0947 18.4443 10.1813 18.7292 8.72026 18.7292C7.09353 18.7292 5.72546 18.4544 4.73325 17.931C4.61807 17.8704 4.47055 17.7835 4.40386 17.739L4.28464 17.6562L3.95323 17.9108C3.77136 18.0502 3.61172 18.1775 3.59757 18.1937C3.54907 18.2523 4.27251 18.6868 4.79185 18.9091C5.61633 19.2627 6.75202 19.5153 7.87153 19.5982C8.2959 19.6285 9.23758 19.6244 9.60334 19.5881C11.026 19.4527 12.0081 18.9657 12.6628 18.0725C12.9376 17.6966 13.1134 17.2864 13.2185 16.7751C13.2792 16.4801 13.2933 15.8193 13.2468 15.4555C13.17 14.8372 12.9801 14.3077 12.6749 13.8531C12.1495 13.067 11.4342 12.6467 10.3672 12.4931C10.1833 12.4668 9.86807 12.4567 8.88192 12.4446C7.54416 12.4284 7.41685 12.4183 6.94399 12.3132C6.0993 12.1213 5.36778 11.707 4.85854 11.1311C4.2321 10.4238 3.88452 9.61952 3.76732 8.60508C3.72286 8.20093 3.737 7.48759 3.79763 7.14001C3.92292 6.43678 4.16945 5.86288 4.59382 5.3011C4.75346 5.09094 5.15762 4.68678 5.37182 4.52512C6.26096 3.8522 7.3825 3.52079 8.91223 3.48037C11.218 3.41571 13.5358 4.0563 14.922 5.13742C14.9948 5.19198 15.0514 5.22431 15.0635 5.21421C15.209 5.10508 15.7223 4.6787 15.7223 4.66657C15.7223 4.63828 15.3484 4.34931 15.0979 4.18159C13.8328 3.33488 12.295 2.82766 10.4036 2.63164C10.1126 2.60133 8.68389 2.57506 8.44745 2.59527Z" fill="#517BDC"/>
<path d="M8.32621 0.804853C7.68562 0.855372 7.13193 0.940245 6.57621 1.07766C5.40213 1.36663 4.41599 1.83343 3.58747 2.49423C3.31062 2.7145 2.72864 3.29446 2.51443 3.56323C1.69803 4.58978 1.23123 5.7578 1.07967 7.15618C1.03926 7.52194 1.03522 8.34844 1.06957 8.72633C1.21709 10.2904 1.73643 11.6262 2.63972 12.7578C3.61778 13.9824 5.1556 14.8008 6.94803 15.0514C7.44717 15.1201 7.73614 15.1363 8.86172 15.1504C9.9388 15.1646 9.97719 15.1666 10.0944 15.209C10.3147 15.2898 10.4541 15.4475 10.5309 15.7021C10.5915 15.8961 10.5794 16.2295 10.5107 16.3649C10.3571 16.6599 10.1106 16.8034 9.61345 16.8863C9.44168 16.9146 9.2679 16.9206 8.58891 16.9206C7.31784 16.9186 6.56206 16.8357 5.92754 16.6236L5.681 16.5427L5.35161 16.7893C5.16974 16.9267 5.0101 17.0499 4.99394 17.0641C4.97171 17.0843 5.00404 17.1085 5.18591 17.1995C6.01645 17.6158 7.15011 17.8199 8.63943 17.8259C9.42956 17.8279 9.80542 17.7815 10.2783 17.6198C10.8886 17.4137 11.2563 17.0459 11.3998 16.4962C11.4483 16.3063 11.4604 15.8597 11.42 15.6273C11.3635 15.302 11.22 14.9807 11.03 14.7523C10.8037 14.4795 10.4521 14.3178 9.97315 14.2633C9.87413 14.2532 9.36894 14.2431 8.84959 14.2431C8.33227 14.2431 7.78666 14.233 7.63712 14.2229C6.42263 14.1279 5.4284 13.8025 4.51703 13.2024C2.9873 12.196 2.1224 10.6198 1.95872 8.54446C1.93043 8.18274 1.94659 7.43101 1.99105 7.1097C2.16079 5.85075 2.66397 4.75549 3.50462 3.81582C3.9694 3.2985 4.50693 2.89232 5.19399 2.54475C6.57823 1.84354 8.19284 1.57477 10.1752 1.71623C12.2809 1.86577 14.2936 2.52252 15.7021 3.51877C15.9062 3.66224 16.3022 3.97547 16.3568 4.03609C16.379 4.06034 16.4013 4.07853 16.4094 4.07853C16.4397 4.07853 17.1065 3.56929 17.1065 3.54504C17.1065 3.50866 16.7569 3.20555 16.4397 2.96709C15.9405 2.59123 15.4919 2.32044 14.8837 2.02541C13.5439 1.37674 12.1091 0.992786 10.4278 0.833144C10.0358 0.796769 8.67581 0.778582 8.32621 0.804853Z" fill="#517BDC"/>
<defs>
<filter id="filter0_b_0_1" x="51.8147" y="3.74229" width="18.1172" height="18.7015" filterUnits="userSpaceOnUse" color-interpolation-filters="sRGB">
<feFlood flood-opacity="0" result="BackgroundImageFix"/>
<feGaussianBlur in="BackgroundImage" stdDeviation="2"/>
<feComposite in2="SourceAlpha" operator="in" result="effect1_backgroundBlur_0_1"/>
<feBlend mode="normal" in="SourceGraphic" in2="effect1_backgroundBlur_0_1" result="shape"/>
</filter>
<filter id="filter1_b_0_1" x="52.6848" y="2.60751" width="16.1187" height="18.7245" filterUnits="userSpaceOnUse" color-interpolation-filters="sRGB">
<feFlood flood-opacity="0" result="BackgroundImageFix"/>
<feGaussianBlur in="BackgroundImage" stdDeviation="2"/>
<feComposite in2="SourceAlpha" operator="in" result="effect1_backgroundBlur_0_1"/>
<feBlend mode="normal" in="SourceGraphic" in2="effect1_backgroundBlur_0_1" result="shape"/>
</filter>
<filter id="filter2_b_0_1" x="53.1034" y="1.48064" width="16.1079" height="18.7125" filterUnits="userSpaceOnUse" color-interpolation-filters="sRGB">
<feFlood flood-opacity="0" result="BackgroundImageFix"/>
<feGaussianBlur in="BackgroundImage" stdDeviation="2"/>
<feComposite in2="SourceAlpha" operator="in" result="effect1_backgroundBlur_0_1"/>
<feBlend mode="normal" in="SourceGraphic" in2="effect1_backgroundBlur_0_1" result="shape"/>
</filter>
<filter id="filter3_b_0_1" x="51.9864" y="0.350502" width="18.0938" height="18.7217" filterUnits="userSpaceOnUse" color-interpolation-filters="sRGB">
<feFlood flood-opacity="0" result="BackgroundImageFix"/>
<feGaussianBlur in="BackgroundImage" stdDeviation="2"/>
<feComposite in2="SourceAlpha" operator="in" result="effect1_backgroundBlur_0_1"/>
<feBlend mode="normal" in="SourceGraphic" in2="effect1_backgroundBlur_0_1" result="shape"/>
</filter>
<filter id="filter4_b_0_1" x="47.1265" y="0.907049" width="12.0012" height="20.971" filterUnits="userSpaceOnUse" color-interpolation-filters="sRGB">
<feFlood flood-opacity="0" result="BackgroundImageFix"/>
<feGaussianBlur in="BackgroundImage" stdDeviation="2"/>
<feComposite in2="SourceAlpha" operator="in" result="effect1_backgroundBlur_0_1"/>
<feBlend mode="normal" in="SourceGraphic" in2="effect1_backgroundBlur_0_1" result="shape"/>
</filter>
<filter id="filter5_b_0_1" x="45.9544" y="0.907049" width="11.9949" height="20.9734" filterUnits="userSpaceOnUse" color-interpolation-filters="sRGB">
<feFlood flood-opacity="0" result="BackgroundImageFix"/>
<feGaussianBlur in="BackgroundImage" stdDeviation="2"/>
<feComposite in2="SourceAlpha" operator="in" result="effect1_backgroundBlur_0_1"/>
<feBlend mode="normal" in="SourceGraphic" in2="effect1_backgroundBlur_0_1" result="shape"/>
</filter>
<filter id="filter6_b_0_1" x="44.7823" y="0.907045" width="12.0012" height="20.9706" filterUnits="userSpaceOnUse" color-interpolation-filters="sRGB">
<feFlood flood-opacity="0" result="BackgroundImageFix"/>
<feGaussianBlur in="BackgroundImage" stdDeviation="2"/>
<feComposite in2="SourceAlpha" operator="in" result="effect1_backgroundBlur_0_1"/>
<feBlend mode="normal" in="SourceGraphic" in2="effect1_backgroundBlur_0_1" result="shape"/>
</filter>
<filter id="filter7_b_0_1" x="40.0941" y="0.905024" width="15.5173" height="20.9759" filterUnits="userSpaceOnUse" color-interpolation-filters="sRGB">
<feFlood flood-opacity="0" result="BackgroundImageFix"/>
<feGaussianBlur in="BackgroundImage" stdDeviation="2"/>
<feComposite in2="SourceAlpha" operator="in" result="effect1_backgroundBlur_0_1"/>
<feBlend mode="normal" in="SourceGraphic" in2="effect1_backgroundBlur_0_1" result="shape"/>
</filter>
<filter id="filter8_b_0_1" x="38.9221" y="0.907047" width="11.9949" height="20.9699" filterUnits="userSpaceOnUse" color-interpolation-filters="sRGB">
<feFlood flood-opacity="0" result="BackgroundImageFix"/>
<feGaussianBlur in="BackgroundImage" stdDeviation="2"/>
<feComposite in2="SourceAlpha" operator="in" result="effect1_backgroundBlur_0_1"/>
<feBlend mode="normal" in="SourceGraphic" in2="effect1_backgroundBlur_0_1" result="shape"/>
</filter>
<filter id="filter9_b_0_1" x="37.75" y="0.907047" width="12.0012" height="20.9702" filterUnits="userSpaceOnUse" color-interpolation-filters="sRGB">
<feFlood flood-opacity="0" result="BackgroundImageFix"/>
<feGaussianBlur in="BackgroundImage" stdDeviation="2"/>
<feComposite in2="SourceAlpha" operator="in" result="effect1_backgroundBlur_0_1"/>
<feBlend mode="normal" in="SourceGraphic" in2="effect1_backgroundBlur_0_1" result="shape"/>
</filter>
<filter id="filter10_b_0_1" x="36.6447" y="0.909557" width="9.79033" height="13.6163" filterUnits="userSpaceOnUse" color-interpolation-filters="sRGB">
<feFlood flood-opacity="0" result="BackgroundImageFix"/>
<feGaussianBlur in="BackgroundImage" stdDeviation="2"/>
<feComposite in2="SourceAlpha" operator="in" result="effect1_backgroundBlur_0_1"/>
<feBlend mode="normal" in="SourceGraphic" in2="effect1_backgroundBlur_0_1" result="shape"/>
</filter>
<filter id="filter11_b_0_1" x="35.4827" y="0.907045" width="10.3643" height="15.8551" filterUnits="userSpaceOnUse" color-interpolation-filters="sRGB">
<feFlood flood-opacity="0" result="BackgroundImageFix"/>
<feGaussianBlur in="BackgroundImage" stdDeviation="2"/>
<feComposite in2="SourceAlpha" operator="in" result="effect1_backgroundBlur_0_1"/>
<feBlend mode="normal" in="SourceGraphic" in2="effect1_backgroundBlur_0_1" result="shape"/>
</filter>
<filter id="filter12_b_0_1" x="34.3147" y="0.907047" width="10.9342" height="18.0374" filterUnits="userSpaceOnUse" color-interpolation-filters="sRGB">
<feFlood flood-opacity="0" result="BackgroundImageFix"/>
<feGaussianBlur in="BackgroundImage" stdDeviation="2"/>
<feComposite in2="SourceAlpha" operator="in" result="effect1_backgroundBlur_0_1"/>
<feBlend mode="normal" in="SourceGraphic" in2="effect1_backgroundBlur_0_1" result="shape"/>
</filter>
<filter id="filter13_b_0_1" x="33.1488" y="0.905024" width="15.4464" height="20.9739" filterUnits="userSpaceOnUse" color-interpolation-filters="sRGB">
<feFlood flood-opacity="0" result="BackgroundImageFix"/>
<feGaussianBlur in="BackgroundImage" stdDeviation="2"/>
<feComposite in2="SourceAlpha" operator="in" result="effect1_backgroundBlur_0_1"/>
<feBlend mode="normal" in="SourceGraphic" in2="effect1_backgroundBlur_0_1" result="shape"/>
</filter>
<filter id="filter14_b_0_1" x="28.7402" y="3.86531" width="12.3815" height="14.7011" filterUnits="userSpaceOnUse" color-interpolation-filters="sRGB">
<feFlood flood-opacity="0" result="BackgroundImageFix"/>
<feGaussianBlur in="BackgroundImage" stdDeviation="2"/>
<feComposite in2="SourceAlpha" operator="in" result="effect1_backgroundBlur_0_1"/>
<feBlend mode="normal" in="SourceGraphic" in2="effect1_backgroundBlur_0_1" result="shape"/>
</filter>
<filter id="filter15_b_0_1" x="26.0092" y="2.28433" width="9.59642" height="16.2742" filterUnits="userSpaceOnUse" color-interpolation-filters="sRGB">
<feFlood flood-opacity="0" result="BackgroundImageFix"/>
<feGaussianBlur in="BackgroundImage" stdDeviation="2"/>
<feComposite in2="SourceAlpha" operator="in" result="effect1_backgroundBlur_0_1"/>
<feBlend mode="normal" in="SourceGraphic" in2="effect1_backgroundBlur_0_1" result="shape"/>
</filter>
<filter id="filter16_b_0_1" x="20.4601" y="4.12152" width="12.4987" height="16.5061" filterUnits="userSpaceOnUse" color-interpolation-filters="sRGB">
<feFlood flood-opacity="0" result="BackgroundImageFix"/>
<feGaussianBlur in="BackgroundImage" stdDeviation="2"/>
<feComposite in2="SourceAlpha" operator="in" result="effect1_backgroundBlur_0_1"/>
<feBlend mode="normal" in="SourceGraphic" in2="effect1_backgroundBlur_0_1" result="shape"/>
</filter>
<filter id="filter17_b_0_1" x="14.5716" y="2.15993" width="12.5638" height="16.3074" filterUnits="userSpaceOnUse" color-interpolation-filters="sRGB">
<feFlood flood-opacity="0" result="BackgroundImageFix"/>
<feGaussianBlur in="BackgroundImage" stdDeviation="2"/>
<feComposite in2="SourceAlpha" operator="in" result="effect1_backgroundBlur_0_1"/>
<feBlend mode="normal" in="SourceGraphic" in2="effect1_backgroundBlur_0_1" result="shape"/>
</filter>
</defs>
</svg>
