<svg width="327" height="221" viewBox="0 0 327 221" fill="none" xmlns="http://www.w3.org/2000/svg">
<path d="M189 111V5L276.309 5.00001C338.564 5.00001 338.564 111 276.309 111H189Z" stroke="#517BDC" stroke-width="8"/>
<path d="M204 96V21L272.414 21C321.195 21 321.195 96 272.414 96H204Z" stroke="#517BDC" stroke-width="8"/>
<path d="M220 81V36L267.03 36C301.657 36 301.657 81 267.03 81H220Z" stroke="#517BDC" stroke-width="8"/>
<path d="M236 66V50H266.545C281.818 50 281.818 66 266.545 66H236Z" stroke="#517BDC" stroke-width="7"/>
<path d="M189 111V217C189 217 214.054 217 276.309 217C338.564 217 338.564 111 276.309 111" stroke="#517BDC" stroke-width="8"/>
<path d="M204 202V127L272.414 127C321.195 127 321.195 202 272.414 202H204Z" stroke="#517BDC" stroke-width="8"/>
<path d="M220 187V142L267.03 142C301.657 142 301.657 187 267.03 187H220Z" stroke="#517BDC" stroke-width="8"/>
<path d="M236 172V156H266.545C281.818 156 281.818 172 266.545 172H236Z" stroke="#517BDC" stroke-width="7"/>
<path d="M79.7754 53.0282C71.6342 53.5063 66.4263 54.9405 62.3956 57.809C58.4447 60.5977 56.3297 65.0995 56.3297 70.7368C56.3297 76.3542 57.8861 80.7365 61.0188 83.9038C62.8347 85.7364 64.411 86.6526 67.1646 87.4495C69.8783 88.2462 72.0134 88.3657 82.529 88.3657C87.9365 88.3657 93.5835 88.4654 95.0597 88.5848C110.045 89.7402 122.616 95.1986 132.633 104.899C137.043 109.162 140.415 113.724 143.109 119.002C147.339 127.368 149.514 135.755 150.113 146.152C151.17 163.981 145.424 179.996 133.511 192.446C123.993 202.406 109.387 209.159 92.6455 211.35C85.8813 212.246 75.4255 212.426 67.9428 211.788C43.9982 209.756 22.887 201.968 8.93928 190.036C8.16108 189.378 7.44283 188.781 7.30311 188.701C7.16339 188.601 5.64689 189.618 3.53182 191.171L0 193.8L1.07751 194.777C5.04831 198.342 11.4535 202.944 16.3222 205.713C25.4012 210.892 37.2937 215.353 48.5676 217.824C58.0457 219.896 65.7479 220.772 76.084 220.971C89.9518 221.23 100.627 219.756 111.642 216.051C123.773 211.967 133.571 205.772 141.493 197.127C151.31 186.41 156.597 174.678 158.633 159.18C159.112 155.355 159.132 144.917 158.633 140.954C156.718 125.715 151.849 113.584 143.328 102.927C134.09 91.3532 120.022 83.4257 103.899 80.6967C98.3528 79.7604 95.4991 79.5811 82.6688 79.4218C70.6764 79.2823 70.5966 79.2823 69.4194 78.8242C66.9252 77.8482 65.4685 75.7167 65.0694 72.4698C64.6704 69.3424 65.1692 67.4899 66.9451 65.5377C69.6588 62.5897 74.328 61.7331 86.6595 61.9323C98.0931 62.1315 105.037 62.988 110.724 64.9004L113.139 65.7171L116.55 63.1474C118.426 61.7331 119.943 60.4781 119.902 60.3786C119.843 60.0798 117.349 58.8049 114.874 57.809C109.087 55.4784 101.326 53.9046 92.7452 53.327C89.3931 53.1079 81.6112 52.9287 79.7754 53.0282Z" fill="#517BDC"/>
<path d="M74.9521 35.1898C60.256 36.5659 49.9945 41.8109 43.8099 51.0846C39.415 57.6659 37.6848 65.3241 38.4803 74.5578C39.5541 87.1021 45.699 97.0937 55.3042 101.88C57.3924 102.917 60.3554 103.954 62.8213 104.532C66.9378 105.489 68.5088 105.61 81.7135 105.769C92.8899 105.909 94.5205 105.968 96.8469 106.327C108.799 108.202 117.012 112.929 123.554 121.644C128.625 128.424 131.409 136.362 132.145 146.074C133.001 157.561 130.137 167.932 123.813 176.268C122.342 178.203 118.265 182.272 116.196 183.847C108.838 189.511 99.8297 192.682 87.58 193.958C83.901 194.337 72.7049 194.277 68.0912 193.838C49.6962 192.144 33.9064 186.779 22.7302 178.442C21.7359 177.685 20.8211 177.086 20.7217 177.126C20.6222 177.146 19.071 178.363 17.2614 179.818L14 182.45L15.0142 183.348C16.7245 184.864 20.8211 187.776 23.4859 189.371C35.5968 196.63 50.4718 201.098 67.9918 202.733C72.3669 203.132 86.1283 203.072 89.7674 202.633C106.034 200.659 117.449 195.573 126.697 186.22C130.634 182.231 133.458 178.283 135.904 173.337C138.271 168.551 139.742 163.744 140.618 157.921C141.174 154.211 141.115 144.818 140.498 140.869C138.668 128.803 134.115 119.45 126.081 111.194C118.424 103.316 108.719 98.809 96.1315 97.2734C94.0826 97.0335 90.4834 96.9141 80.918 96.7947C67.4946 96.6151 67.1367 96.5954 63.2191 95.4782C61.0117 94.8604 58.1082 93.5034 56.4775 92.327C53.9519 90.5121 51.1877 87.0621 49.8355 84.0108C49.0201 82.196 48.2445 79.763 47.7872 77.6091C47.2104 74.9367 47.0315 68.5349 47.4689 65.7628C48.5429 58.9622 52.2218 53.1786 57.8497 49.4292C61.8469 46.7569 67.435 44.982 74.5543 44.1044C77.3981 43.7654 89.4095 43.7654 93.3475 44.1044C106.751 45.301 117.39 48.3523 125.027 53.1985L126.776 54.3153L130.157 51.7028C132.007 50.2469 133.517 49.0105 133.517 48.9107C133.517 48.452 128.506 45.2213 125.225 43.5859C116.336 39.0987 104.345 36.1271 91.3586 35.1698C88.1964 34.9305 77.5174 34.9504 74.9521 35.1898Z" fill="#517BDC"/>
<path d="M75.314 18.0697C68.9221 18.6245 64.9993 19.2389 60.28 20.4278C55.7398 21.5771 52.3945 22.7859 48.3323 24.7873C42.717 27.5417 38.4556 30.6133 34.0948 35.1114C27.3244 42.0669 23.0831 49.9536 21.1913 59.0689C18.4035 72.4447 20.594 87.6833 26.8664 98.6015C34.513 111.938 46.2813 120.023 61.7734 122.56C66.3533 123.313 68.3645 123.412 80.4914 123.57C91.6228 123.709 92.6979 123.748 94.7692 124.144C97.3174 124.62 100.145 125.512 101.898 126.384C108.11 129.495 112.252 135.677 113.686 143.98C114.144 146.655 114.144 152.799 113.686 155.117C112.73 159.913 110.738 163.737 107.493 167.145C101.4 173.487 92.3993 176.28 78.0023 176.28C61.9726 176.28 48.4917 173.586 38.7145 168.453C37.5795 167.859 36.1259 167.007 35.4687 166.57L34.2939 165.758L31.0282 168.255C29.2361 169.622 27.663 170.87 27.5236 171.029C27.0456 171.604 34.1744 175.865 39.2919 178.044C47.4163 181.512 58.6073 183.989 69.6389 184.802C73.8207 185.099 83.0999 185.059 86.7041 184.703C100.723 183.375 110.4 178.599 116.852 169.841C119.56 166.155 121.292 162.132 122.328 157.118C122.926 154.225 123.065 147.746 122.607 144.178C121.85 138.115 119.979 132.923 116.971 128.465C111.794 120.756 104.745 116.635 94.2311 115.129C92.419 114.871 89.3127 114.772 79.5953 114.653C66.413 114.494 65.1585 114.395 60.499 113.365C52.1755 111.483 44.9671 107.42 39.9491 101.773C33.7762 94.8369 30.3511 86.9501 29.1963 77.0024C28.7582 73.0393 28.8975 66.0442 29.4949 62.6358C30.7295 55.7399 33.1588 50.1122 37.3406 44.6033C38.9136 42.5425 42.8962 38.5792 45.0069 36.994C53.7685 30.3953 64.8201 27.1454 79.8939 26.7491C102.615 26.115 125.454 32.3967 139.114 42.9982C139.831 43.5333 140.389 43.8503 140.508 43.7512C141.942 42.6811 147 38.5 147 38.381C147 38.1036 143.316 35.27 140.847 33.6253C128.381 25.3224 113.228 20.3485 94.5898 18.4264C91.7223 18.1291 77.6439 17.8715 75.314 18.0697Z" fill="#517BDC"/>
<path d="M74.6195 0.122585C68.3173 0.620848 62.8701 1.45794 57.403 2.81325C45.8523 5.66333 36.1507 10.2673 27.9997 16.7847C25.2761 18.9572 19.5505 24.6773 17.4431 27.3282C9.41139 37.4529 4.819 48.973 3.32796 62.7651C2.9304 66.3725 2.89066 74.5242 3.22859 78.2513C4.67989 93.6775 9.78916 106.852 18.6757 118.013C28.2979 130.091 43.427 138.163 61.0609 140.635C65.9715 141.312 68.8144 141.472 79.8878 141.611C90.4841 141.751 90.8618 141.771 92.0149 142.189C94.1822 142.986 95.5537 144.541 96.3092 147.053C96.9054 148.966 96.7864 152.254 96.1105 153.59C94.5994 156.499 92.1743 157.915 87.2833 158.732C85.5935 159.011 83.8838 159.071 77.2039 159.071C64.6991 159.051 57.2637 158.233 51.0213 156.141L48.5959 155.343L45.3553 157.776C43.5661 159.131 41.9955 160.346 41.8366 160.486C41.6179 160.685 41.9359 160.924 43.7252 161.821C51.896 165.927 63.049 167.94 77.7009 167.999C85.4742 168.019 89.1719 167.562 93.8241 165.967C99.8283 163.934 103.446 160.306 104.857 154.885C105.335 153.012 105.454 148.607 105.056 146.315C104.5 143.106 103.089 139.937 101.219 137.685C98.993 134.994 95.534 133.399 90.8221 132.862C89.8479 132.762 84.8778 132.663 79.7685 132.663C74.6791 132.663 69.3114 132.563 67.8402 132.463C55.892 131.526 46.1108 128.317 37.1447 122.398C22.0952 112.472 13.5863 96.9264 11.9761 76.4575C11.6977 72.8899 11.8567 65.4757 12.2941 62.3066C13.964 49.8897 18.9143 39.0873 27.1846 29.8194C31.7571 24.7172 37.0454 20.7111 43.8047 17.283C57.4228 10.367 73.3074 7.7162 92.8098 9.1114C113.526 10.5863 133.327 17.0638 147.184 26.8897C149.191 28.3047 153.087 31.394 153.624 31.9919C153.843 32.2311 154.062 32.4105 154.142 32.4105C154.44 32.4105 161 27.3879 161 27.1488C161 26.79 157.561 23.8004 154.44 21.4485C149.529 17.7414 145.116 15.0707 139.132 12.1608C125.951 5.76305 111.836 1.97615 95.2949 0.401616C91.4384 0.0428527 78.0588 -0.136524 74.6195 0.122585Z" fill="#517BDC"/>
</svg>
