<svg width="600" height="385" viewBox="0 0 600 385" fill="none" xmlns="http://www.w3.org/2000/svg">
<path d="M42 302V200C42 197.791 43.7909 196 46 196H151C153.209 196 155 197.791 155 200V302C155 304.209 153.209 306 151 306H46C43.7909 306 42 304.209 42 302Z" fill="#B7B7B7"/>
<path d="M108.365 266.714L83.254 251L42 266.714V303.251C42 304.129 42.4192 304.954 43.1282 305.471C43.5988 305.815 44.1665 306 44.7493 306L151.755 306C153.142 306 154.376 305.118 154.825 303.806C154.941 303.468 155 303.132 155 302.774V266.714L129.889 241.833L108.365 266.714Z" fill="#808080"/>
<path d="M243 302V200C243 197.791 244.791 196 247 196H352C354.209 196 356 197.791 356 200V302C356 304.209 354.209 306 352 306H247C244.791 306 243 304.209 243 302Z" fill="#B7B7B7"/>
<path d="M309.365 266.714L284.254 251L243 266.714V303.251C243 304.129 243.419 304.954 244.128 305.471C244.599 305.815 245.167 306 245.749 306L352.755 306C354.142 306 355.376 305.118 355.825 303.806C355.941 303.468 356 303.132 356 302.774V266.714L330.889 241.833L309.365 266.714Z" fill="#808080"/>
<path d="M444 302V200C444 197.791 445.791 196 448 196H553C555.209 196 557 197.791 557 200V302C557 304.209 555.209 306 553 306H448C445.791 306 444 304.209 444 302Z" fill="#B7B7B7"/>
<path d="M510.365 266.714L485.254 251L444 266.714V303.251C444 304.129 444.419 304.954 445.128 305.471C445.599 305.815 446.167 306 446.749 306L553.755 306C555.142 306 556.376 305.118 556.825 303.806C556.941 303.468 557 303.132 557 302.774V266.714L531.889 241.833L510.365 266.714Z" fill="#808080"/>
<path d="M32 331H112V342H32V331Z" fill="#B7B7B7"/>
<path d="M118 331H237V342H118V331Z" fill="#B7B7B7"/>
<path d="M243 331H295V342H243V331Z" fill="#B7B7B7"/>
<path d="M301 331H382V342H301V331Z" fill="#B7B7B7"/>
<path d="M388 331H511V342H388V331Z" fill="#B7B7B7"/>
<path d="M517 331H547V342H517V331Z" fill="#B7B7B7"/>
<path d="M452 347H547V358H452V347Z" fill="#B7B7B7"/>
<path d="M338 347H446V358H338V347Z" fill="#B7B7B7"/>
<path d="M148 347H332V358H148V347Z" fill="#B7B7B7"/>
<path d="M32 347H142V358H32V347Z" fill="#B7B7B7"/>
<path d="M32 22H256V54H32V22Z" fill="#B7B7B7"/>
<path d="M32 64H112V75H32V64Z" fill="#B7B7B7"/>
<path d="M118 64H161V75H118V64Z" fill="#B7B7B7"/>
<path d="M167 64H269V75H167V64Z" fill="#B7B7B7"/>
<path d="M32 64H112V75H32V64Z" fill="#B7B7B7"/>
<path d="M118 64H161V75H118V64Z" fill="#B7B7B7"/>
<path d="M167 64H269V75H167V64Z" fill="#B7B7B7"/>
<path d="M181 80H283V91H181V80Z" fill="#B7B7B7"/>
<path d="M73 80H175V91H73V80Z" fill="#B7B7B7"/>
<path d="M32 96H167V107H32V96Z" fill="#B7B7B7"/>
<path d="M173 96H261V107H173V96Z" fill="#B7B7B7"/>
<path d="M32 80H67V91H32V80Z" fill="#B7B7B7"/>
<path d="M211.5 128H76C67.1634 128 60 135.163 60 144V145C60 153.837 67.1634 161 76 161H211.5C220.337 161 227.5 153.837 227.5 145V144C227.5 135.163 220.337 128 211.5 128Z" fill="#B7B7B7"/>
<path d="M389 140V26C389 23.7909 390.791 22 393 22H568C570.209 22 572 23.7909 572 26V140C572 142.209 570.209 144 568 144H393C390.791 144 389 142.209 389 140Z" fill="#B7B7B7"/>
<path d="M496.476 100.429L455.81 83L389 100.429V140.073C389 141.56 389.84 142.92 391.171 143.585C391.716 143.858 392.317 144 392.927 144L568.073 144C569.56 144 570.92 143.16 571.585 141.829C571.858 141.284 572 140.693 572 140.084V100.429L531.333 72.8333L496.476 100.429Z" fill="#808080"/>
</svg>
